<svg width="35" height="35" viewBox="0 0 35 35" fill="none" xmlns="http://www.w3.org/2000/svg">
<rect width="35" height="35" rx="17.5" fill="#007AFF"/>
<path d="M23.9286 15.8929H19.1071V11.0714C19.1071 10.4798 18.6273 10 18.0357 10H16.9643C16.3727 10 15.8929 10.4798 15.8929 11.0714V15.8929H11.0714C10.4798 15.8929 10 16.3727 10 16.9643V18.0357C10 18.6273 10.4798 19.1071 11.0714 19.1071H15.8929V23.9286C15.8929 24.5202 16.3727 25 16.9643 25H18.0357C18.6273 25 19.1071 24.5202 19.1071 23.9286V19.1071H23.9286C24.5202 19.1071 25 18.6273 25 18.0357V16.9643C25 16.3727 24.5202 15.8929 23.9286 15.8929Z" fill="white"/>
</svg>
