<svg width="25" height="25" viewBox="0 0 25 25" fill="none" xmlns="http://www.w3.org/2000/svg">
<g clip-path="url(#clip0)">
<path d="M12.5 17.5781C9.23027 17.5781 6.14468 16.8072 3.81162 15.4074C1.35366 13.9326 0 11.929 0 9.76562C0 7.60225 1.35366 5.59863 3.81167 4.12388C6.14468 2.72407 9.23027 1.95312 12.5 1.95312C15.7697 1.95312 18.8553 2.72407 21.1884 4.12388C23.6463 5.59863 25 7.60225 25 9.76562C25 11.929 23.6463 13.9326 21.1883 15.4074C18.8553 16.8072 15.7697 17.5781 12.5 17.5781Z" fill="#007AFF"/>
<path d="M3.90625 17.2791C3.90625 17.2559 3.89312 17.2346 3.87241 17.2241C3.57549 17.0733 3.28667 16.9146 3.00776 16.7472C1.8252 16.0377 0.85332 15.2127 0.109912 14.2886C0.0733398 14.2432 0 14.2694 0 14.3277V15.2344C0 17.3978 1.35366 19.4014 3.81167 20.8761C3.85332 20.9011 3.9063 20.8711 3.9063 20.8226V17.2791H3.90625Z" fill="#007AFF"/>
<path d="M16.0891 22.7254C17.2981 22.503 18.4446 22.168 19.493 21.7289C19.5162 21.7192 19.5312 21.6965 19.5312 21.6714V18.0132C19.5312 17.9701 19.4885 17.9404 19.448 17.9553C18.388 18.347 17.2521 18.6463 16.0671 18.846C16.0374 18.851 16.0155 18.8767 16.0155 18.9068V22.6641C16.0156 22.7029 16.051 22.7324 16.0891 22.7254Z" fill="#007AFF"/>
<path d="M5.50681 21.7289C6.55525 22.1679 7.70168 22.5029 8.91076 22.7254C8.94894 22.7324 8.9843 22.7029 8.9843 22.6641V18.9068C8.9843 18.8767 8.96247 18.851 8.93268 18.846C7.74772 18.6463 6.61179 18.347 5.55183 17.9553C5.51135 17.9404 5.46863 17.9701 5.46863 18.0132V21.6714C5.46868 21.6965 5.48367 21.7192 5.50681 21.7289Z" fill="#007AFF"/>
<path d="M14.4531 19.121C14.4531 19.0848 14.4222 19.0564 14.3861 19.0596C13.7655 19.1132 13.1356 19.1406 12.5 19.1406C11.8644 19.1406 11.2345 19.1132 10.6139 19.0596C10.5778 19.0564 10.5469 19.0848 10.5469 19.121V22.8965C10.5469 22.9286 10.5712 22.9556 10.6032 22.9585C11.2256 23.0167 11.8592 23.0469 12.5 23.0469C13.1408 23.0469 13.7744 23.0167 14.3968 22.9585C14.4287 22.9556 14.4531 22.9286 14.4531 22.8965V19.121Z" fill="#007AFF"/>
<path d="M21.9924 16.7472C21.7135 16.9145 21.4246 17.0733 21.1277 17.2241C21.107 17.2347 21.0939 17.2559 21.0939 17.2791V20.8226C21.0939 20.8711 21.1469 20.9011 21.1885 20.8761C23.6464 19.4014 25.0001 17.3977 25.0001 15.2344V14.3277C25.0001 14.2694 24.9267 14.2432 24.8902 14.2886C24.1468 15.2127 23.1749 16.0377 21.9924 16.7472Z" fill="#007AFF"/>
</g>
<defs>
<clipPath id="clip0">
<rect width="25" height="25" fill="white"/>
</clipPath>
</defs>
</svg>
