<svg width="25" height="25" viewBox="0 0 25 25" fill="none" xmlns="http://www.w3.org/2000/svg">
<g clip-path="url(#clip0)">
<path d="M12.3041 25H10.351C9.38167 25 8.59314 24.2115 8.59314 23.2422V11.1328C8.59314 10.1635 9.38167 9.375 10.351 9.375H12.3041C13.2734 9.375 14.0619 10.1635 14.0619 11.1328V23.2422C14.0619 24.2115 13.2733 25 12.3041 25Z" fill="#007AFF"/>
<path d="M4.8822 25H2.92907C1.95979 25 1.17126 24.2115 1.17126 23.2422V15.0391C1.17126 14.0698 1.95979 13.2812 2.92907 13.2812H4.8822C5.85148 13.2812 6.64001 14.0698 6.64001 15.0391V23.2422C6.64001 24.2115 5.85143 25 4.8822 25Z" fill="#007AFF"/>
<path d="M19.7259 25H17.7728C16.8035 25 16.015 24.2115 16.015 23.2422V7.03125H14.9418C14.44 7.03125 13.998 6.74805 13.7883 6.29219C13.5787 5.83633 13.6513 5.3165 13.9778 4.9355C13.9816 4.93115 13.9854 4.92681 13.9892 4.92256L18.1675 0.259863C18.3157 0.0944824 18.5273 0 18.7494 0C18.9714 0 19.183 0.0944824 19.3312 0.259863L23.5096 4.92256C23.5134 4.92681 23.5172 4.93115 23.5209 4.9355C23.8475 5.31646 23.9201 5.83633 23.7104 6.29219C23.5007 6.74805 23.0587 7.03125 22.557 7.03125H21.4837V23.2422C21.4837 24.2115 20.6952 25 19.7259 25Z" fill="#007AFF"/>
</g>
<defs>
<clipPath id="clip0">
<rect width="25" height="25" fill="white"/>
</clipPath>
</defs>
</svg>
