<svg width="21" height="21" viewBox="0 0 21 21" fill="none" xmlns="http://www.w3.org/2000/svg">
<g clip-path="url(#clip0)">
<path d="M10.3503 10.1158C11.74 10.1158 12.9434 9.61732 13.9267 8.63391C14.9099 7.65067 15.4084 6.4476 15.4084 5.05772C15.4084 3.66832 14.9099 2.46509 13.9265 1.48152C12.9431 0.498434 11.7399 0 10.3503 0C8.96041 0 7.75734 0.498434 6.77409 1.48168C5.79083 2.46493 5.29224 3.66816 5.29224 5.05772C5.29224 6.4476 5.79083 7.65083 6.77425 8.63408C7.75766 9.61716 8.96089 10.1158 10.3503 10.1158Z" fill="white"/>
<path d="M19.2006 16.1479C19.1722 15.7387 19.1149 15.2924 19.0304 14.821C18.9452 14.3461 18.8355 13.8972 18.7041 13.4869C18.5684 13.0628 18.3838 12.644 18.1557 12.2426C17.9189 11.8261 17.6407 11.4633 17.3286 11.1649C17.0023 10.8526 16.6027 10.6015 16.1406 10.4184C15.6801 10.2362 15.1699 10.144 14.624 10.144C14.4096 10.144 14.2023 10.2319 13.8019 10.4926C13.5555 10.6533 13.2673 10.8391 12.9456 11.0447C12.6705 11.22 12.2978 11.3842 11.8375 11.5329C11.3884 11.6782 10.9324 11.7519 10.4824 11.7519C10.0323 11.7519 9.57651 11.6782 9.12694 11.5329C8.66711 11.3844 8.29445 11.2201 8.01968 11.0449C7.701 10.8412 7.41261 10.6554 7.16251 10.4924C6.76261 10.2318 6.55513 10.1438 6.34076 10.1438C5.79474 10.1438 5.28461 10.2362 4.8243 10.4186C4.36256 10.6014 3.96281 10.8524 3.63613 11.165C3.32419 11.4637 3.04589 11.8262 2.80941 12.2426C2.58142 12.644 2.39685 13.0626 2.26099 13.487C2.12977 13.8974 2.02002 14.3461 1.93478 14.821C1.85035 15.2917 1.79299 15.7382 1.76463 16.1484C1.73676 16.5502 1.72266 16.9673 1.72266 17.3885C1.72266 18.4847 2.07113 19.3721 2.7583 20.0266C3.43698 20.6724 4.335 21.0001 5.42704 21.0001H15.5387C16.6307 21.0001 17.5284 20.6726 18.2073 20.0266C18.8946 19.3726 19.2431 18.485 19.2431 17.3883C19.2429 16.9652 19.2286 16.5478 19.2006 16.1479Z" fill="white"/>
</g>
<defs>
<clipPath id="clip0">
<rect width="21" height="21" fill="white"/>
</clipPath>
</defs>
</svg>
